<svg xmlns="http://www.w3.org/2000/svg" xmlns:xlink="http://www.w3.org/1999/xlink" width="500" zoomAndPan="magnify" viewBox="0 0 375 374.999991" height="500" preserveAspectRatio="xMidYMid meet" version="1.0"><path fill="#ff3131" d="M 281.210938 93.738281 C 282.746094 95.273438 284.242188 96.84375 285.699219 98.453125 C 287.15625 100.058594 288.574219 101.703125 289.949219 103.378906 C 291.324219 105.054688 292.660156 106.765625 293.953125 108.507812 C 295.246094 110.25 296.496094 112.023438 297.699219 113.828125 C 298.90625 115.632812 300.066406 117.464844 301.179688 119.324219 C 302.296875 121.1875 303.367188 123.074219 304.386719 124.988281 C 305.410156 126.898438 306.386719 128.835938 307.3125 130.800781 C 308.242188 132.761719 309.121094 134.742188 309.949219 136.746094 C 310.78125 138.75 311.5625 140.777344 312.292969 142.816406 C 313.023438 144.859375 313.703125 146.921875 314.335938 148.996094 C 314.964844 151.074219 315.542969 153.164062 316.070312 155.269531 C 316.597656 157.371094 317.070312 159.488281 317.496094 161.617188 C 317.917969 163.746094 318.289062 165.882812 318.609375 168.027344 C 318.925781 170.171875 319.191406 172.328125 319.40625 174.484375 C 319.617188 176.644531 319.777344 178.808594 319.882812 180.976562 C 319.988281 183.140625 320.042969 185.308594 320.042969 187.480469 C 320.042969 189.648438 319.988281 191.816406 319.882812 193.984375 C 319.777344 196.152344 319.617188 198.316406 319.40625 200.472656 C 319.191406 202.632812 318.925781 204.785156 318.609375 206.933594 C 318.289062 209.078125 317.917969 211.214844 317.496094 213.34375 C 317.074219 215.472656 316.597656 217.585938 316.070312 219.691406 C 315.542969 221.796875 314.964844 223.886719 314.335938 225.960938 C 313.707031 228.039062 313.023438 230.097656 312.292969 232.140625 C 311.5625 234.183594 310.78125 236.207031 309.953125 238.210938 C 309.121094 240.214844 308.242188 242.199219 307.316406 244.160156 C 306.386719 246.121094 305.414062 248.058594 304.390625 249.972656 C 303.367188 251.886719 302.296875 253.773438 301.183594 255.632812 C 300.066406 257.496094 298.90625 259.328125 297.703125 261.132812 C 296.496094 262.9375 295.25 264.710938 293.957031 266.453125 C 292.664062 268.195312 291.328125 269.90625 289.953125 271.582031 C 288.578125 273.257812 287.160156 274.902344 285.703125 276.507812 C 284.246094 278.117188 282.75 279.6875 281.214844 281.222656 C 279.683594 282.753906 278.109375 284.25 276.503906 285.707031 C 274.894531 287.164062 273.253906 288.582031 271.578125 289.957031 C 269.898438 291.335938 268.1875 292.667969 266.445312 293.960938 C 264.703125 295.253906 262.929688 296.503906 261.125 297.707031 C 259.324219 298.914062 257.492188 300.074219 255.628906 301.191406 C 253.769531 302.304688 251.882812 303.375 249.96875 304.398438 C 248.054688 305.421875 246.117188 306.394531 244.15625 307.324219 C 242.195312 308.25 240.210938 309.128906 238.207031 309.960938 C 236.203125 310.789062 234.179688 311.570312 232.136719 312.300781 C 230.09375 313.03125 228.035156 313.714844 225.957031 314.34375 C 223.882812 314.972656 221.792969 315.550781 219.6875 316.078125 C 217.582031 316.605469 215.464844 317.082031 213.339844 317.503906 C 211.210938 317.925781 209.074219 318.296875 206.925781 318.617188 C 204.78125 318.933594 202.628906 319.199219 200.46875 319.414062 C 198.308594 319.625 196.148438 319.785156 193.980469 319.890625 C 191.8125 320 189.644531 320.050781 187.476562 320.050781 C 185.304688 320.050781 183.136719 320 180.96875 319.890625 C 178.804688 319.785156 176.640625 319.625 174.480469 319.414062 C 172.320312 319.203125 170.167969 318.9375 168.023438 318.617188 C 165.878906 318.300781 163.738281 317.929688 161.613281 317.503906 C 159.484375 317.082031 157.367188 316.605469 155.261719 316.078125 C 153.160156 315.550781 151.070312 314.972656 148.992188 314.34375 C 146.914062 313.714844 144.855469 313.035156 142.8125 312.304688 C 140.769531 311.574219 138.746094 310.792969 136.742188 309.960938 C 134.738281 309.132812 132.753906 308.253906 130.792969 307.324219 C 128.832031 306.398438 126.894531 305.421875 124.980469 304.398438 C 123.070312 303.375 121.179688 302.308594 119.320312 301.191406 C 117.460938 300.078125 115.625 298.917969 113.824219 297.710938 C 112.019531 296.507812 110.246094 295.257812 108.503906 293.964844 C 106.761719 292.671875 105.050781 291.335938 103.375 289.960938 C 101.695312 288.585938 100.054688 287.167969 98.445312 285.710938 C 96.839844 284.253906 95.269531 282.757812 93.734375 281.226562 C 92.199219 279.691406 90.703125 278.121094 89.246094 276.511719 C 87.789062 274.90625 86.371094 273.261719 84.996094 271.585938 C 83.621094 269.910156 82.285156 268.199219 80.992188 266.457031 C 79.699219 264.714844 78.453125 262.941406 77.246094 261.136719 C 76.039062 259.332031 74.878906 257.5 73.765625 255.636719 C 72.648438 253.777344 71.582031 251.890625 70.558594 249.976562 C 69.535156 248.0625 68.558594 246.125 67.632812 244.164062 C 66.703125 242.203125 65.824219 240.222656 64.996094 238.214844 C 64.164062 236.210938 63.382812 234.1875 62.652344 232.144531 C 61.921875 230.101562 61.242188 228.042969 60.613281 225.96875 C 59.980469 223.890625 59.402344 221.800781 58.875 219.695312 C 58.347656 217.589844 57.875 215.476562 57.449219 213.347656 C 57.027344 211.21875 56.65625 209.082031 56.339844 206.9375 C 56.019531 204.789062 55.753906 202.636719 55.542969 200.476562 C 55.328125 198.320312 55.167969 196.15625 55.0625 193.988281 C 54.957031 191.820312 54.902344 189.652344 54.902344 187.484375 C 54.902344 185.316406 54.957031 183.144531 55.0625 180.980469 C 55.167969 178.8125 55.328125 176.648438 55.542969 174.488281 C 55.753906 172.332031 56.019531 170.179688 56.335938 168.03125 C 56.65625 165.886719 57.027344 163.75 57.449219 161.621094 C 57.871094 159.492188 58.347656 157.375 58.875 155.273438 C 59.402344 153.167969 59.980469 151.078125 60.609375 149 C 61.242188 146.925781 61.921875 144.867188 62.652344 142.824219 C 63.382812 140.78125 64.164062 138.757812 64.992188 136.75 C 65.824219 134.746094 66.703125 132.765625 67.628906 130.804688 C 68.558594 128.839844 69.53125 126.90625 70.554688 124.992188 C 71.578125 123.078125 72.648438 121.191406 73.761719 119.328125 C 74.878906 117.46875 76.039062 115.636719 77.242188 113.832031 C 78.449219 112.027344 79.699219 110.253906 80.992188 108.511719 C 82.28125 106.769531 83.617188 105.058594 84.992188 103.382812 C 86.371094 101.703125 87.785156 100.0625 89.242188 98.453125 C 90.699219 96.847656 92.195312 95.277344 93.730469 93.742188 C 95.265625 92.207031 96.835938 90.710938 98.441406 89.253906 C 100.050781 87.796875 101.691406 86.382812 103.371094 85.003906 C 105.046875 83.628906 106.757812 82.292969 108.5 81.003906 C 110.242188 79.710938 112.015625 78.460938 113.820312 77.253906 C 115.621094 76.050781 117.457031 74.890625 119.316406 73.773438 C 121.175781 72.660156 123.066406 71.589844 124.976562 70.566406 C 126.890625 69.542969 128.828125 68.570312 130.789062 67.640625 C 132.75 66.714844 134.734375 65.835938 136.738281 65.003906 C 138.742188 64.171875 140.765625 63.394531 142.808594 62.664062 C 144.851562 61.929688 146.910156 61.25 148.988281 60.621094 C 151.0625 59.992188 153.15625 59.414062 155.257812 58.886719 C 157.363281 58.359375 159.480469 57.882812 161.609375 57.460938 C 163.734375 57.035156 165.871094 56.664062 168.019531 56.347656 C 170.164062 56.027344 172.316406 55.761719 174.476562 55.550781 C 176.636719 55.335938 178.796875 55.179688 180.964844 55.070312 C 183.132812 54.964844 185.300781 54.910156 187.472656 54.910156 C 189.640625 54.910156 191.808594 54.964844 193.976562 55.070312 C 196.144531 55.179688 198.304688 55.335938 200.464844 55.550781 C 202.625 55.761719 204.777344 56.027344 206.921875 56.347656 C 209.070312 56.664062 211.207031 57.035156 213.332031 57.457031 C 215.460938 57.882812 217.578125 58.355469 219.683594 58.882812 C 221.789062 59.410156 223.878906 59.988281 225.953125 60.621094 C 228.03125 61.25 230.089844 61.929688 232.132812 62.660156 C 234.175781 63.390625 236.199219 64.171875 238.203125 65.003906 C 240.207031 65.832031 242.191406 66.710938 244.152344 67.640625 C 246.113281 68.566406 248.050781 69.542969 249.964844 70.566406 C 251.878906 71.585938 253.765625 72.65625 255.625 73.773438 C 257.488281 74.886719 259.320312 76.046875 261.125 77.253906 C 262.925781 78.457031 264.699219 79.707031 266.441406 81 C 268.1875 82.292969 269.894531 83.625 271.574219 85.003906 C 273.25 86.378906 274.890625 87.796875 276.5 89.253906 C 278.109375 90.710938 279.679688 92.203125 281.210938 93.738281 Z M 281.210938 93.738281 " fill-opacity="1" fill-rule="nonzero"/></svg>