<svg xmlns="http://www.w3.org/2000/svg" xmlns:xlink="http://www.w3.org/1999/xlink" width="500" zoomAndPan="magnify" viewBox="0 0 375 374.999991" height="500" preserveAspectRatio="xMidYMid meet" version="1.0"><defs><g/></defs><path fill="#ff3131" d="M 51.128906 173.863281 C 51.574219 174.308594 52 174.777344 52.398438 175.265625 C 52.800781 175.753906 53.175781 176.257812 53.527344 176.785156 C 53.875 177.308594 54.203125 177.851562 54.5 178.40625 C 54.796875 178.964844 55.066406 179.535156 55.308594 180.117188 C 55.550781 180.699219 55.761719 181.292969 55.945312 181.898438 C 56.128906 182.503906 56.28125 183.113281 56.40625 183.734375 C 56.527344 184.355469 56.621094 184.976562 56.683594 185.605469 C 56.746094 186.234375 56.777344 186.863281 56.777344 187.496094 C 56.777344 188.128906 56.746094 188.757812 56.683594 189.386719 C 56.621094 190.015625 56.527344 190.636719 56.40625 191.257812 C 56.28125 191.875 56.128906 192.488281 55.945312 193.09375 C 55.761719 193.695312 55.550781 194.289062 55.308594 194.875 C 55.066406 195.457031 54.796875 196.027344 54.5 196.585938 C 54.203125 197.140625 53.878906 197.683594 53.527344 198.207031 C 53.175781 198.734375 52.800781 199.238281 52.398438 199.726562 C 52 200.214844 51.574219 200.683594 51.128906 201.128906 C 50.683594 201.574219 50.214844 202 49.726562 202.398438 C 49.238281 202.800781 48.730469 203.175781 48.207031 203.527344 C 47.683594 203.878906 47.140625 204.203125 46.585938 204.5 C 46.027344 204.796875 45.457031 205.066406 44.875 205.308594 C 44.289062 205.550781 43.695312 205.761719 43.09375 205.945312 C 42.488281 206.128906 41.875 206.285156 41.257812 206.40625 C 40.636719 206.53125 40.011719 206.621094 39.386719 206.683594 C 38.757812 206.746094 38.125 206.777344 37.496094 206.777344 C 36.863281 206.777344 36.234375 206.746094 35.605469 206.683594 C 34.976562 206.621094 34.351562 206.53125 33.734375 206.40625 C 33.113281 206.285156 32.503906 206.128906 31.898438 205.945312 C 31.292969 205.761719 30.699219 205.550781 30.117188 205.308594 C 29.535156 205.066406 28.964844 204.796875 28.40625 204.5 C 27.847656 204.203125 27.308594 203.878906 26.785156 203.527344 C 26.257812 203.175781 25.75 202.800781 25.265625 202.402344 C 24.777344 202 24.308594 201.578125 23.863281 201.128906 C 23.414062 200.683594 22.992188 200.214844 22.589844 199.726562 C 22.191406 199.238281 21.816406 198.734375 21.464844 198.207031 C 21.113281 197.683594 20.789062 197.140625 20.492188 196.585938 C 20.195312 196.027344 19.921875 195.457031 19.683594 194.875 C 19.441406 194.292969 19.226562 193.699219 19.042969 193.09375 C 18.863281 192.488281 18.707031 191.878906 18.585938 191.257812 C 18.460938 190.640625 18.371094 190.015625 18.308594 189.386719 C 18.246094 188.757812 18.214844 188.128906 18.214844 187.496094 C 18.214844 186.863281 18.246094 186.234375 18.308594 185.605469 C 18.367188 184.976562 18.460938 184.355469 18.585938 183.734375 C 18.707031 183.117188 18.859375 182.503906 19.042969 181.898438 C 19.226562 181.296875 19.441406 180.703125 19.683594 180.117188 C 19.921875 179.535156 20.191406 178.964844 20.492188 178.40625 C 20.789062 177.851562 21.113281 177.308594 21.464844 176.785156 C 21.8125 176.261719 22.191406 175.753906 22.589844 175.265625 C 22.992188 174.777344 23.414062 174.308594 23.859375 173.863281 C 24.308594 173.417969 24.773438 172.992188 25.261719 172.59375 C 25.75 172.191406 26.257812 171.816406 26.78125 171.464844 C 27.308594 171.113281 27.847656 170.789062 28.40625 170.492188 C 28.960938 170.195312 29.53125 169.925781 30.117188 169.683594 C 30.699219 169.441406 31.292969 169.230469 31.898438 169.046875 C 32.503906 168.863281 33.113281 168.710938 33.734375 168.585938 C 34.351562 168.464844 34.976562 168.371094 35.605469 168.308594 C 36.234375 168.246094 36.863281 168.214844 37.496094 168.214844 C 38.125 168.214844 38.757812 168.246094 39.382812 168.308594 C 40.011719 168.371094 40.636719 168.460938 41.257812 168.585938 C 41.875 168.710938 42.488281 168.863281 43.089844 169.046875 C 43.695312 169.230469 44.289062 169.441406 44.875 169.683594 C 45.457031 169.925781 46.027344 170.195312 46.582031 170.492188 C 47.140625 170.789062 47.679688 171.113281 48.207031 171.464844 C 48.730469 171.816406 49.238281 172.191406 49.726562 172.59375 C 50.214844 172.992188 50.683594 173.417969 51.128906 173.863281 Z M 51.128906 173.863281 " fill-opacity="1" fill-rule="nonzero"/><g fill="#000000" fill-opacity="1"><g transform="translate(62.728126, 202.499987)"><g><path d="M 7.84375 0 L 2.4375 0 L 2.4375 -22.4375 L 7.84375 -22.4375 L 7.84375 -19.765625 C 8.695312 -20.929688 9.648438 -21.75 10.703125 -22.21875 C 11.753906 -22.6875 12.929688 -22.921875 14.234375 -22.921875 L 14.875 -22.921875 L 14.875 -17.71875 L 13.640625 -17.71875 C 12.734375 -17.71875 11.953125 -17.597656 11.296875 -17.359375 C 10.640625 -17.117188 10.085938 -16.785156 9.640625 -16.359375 C 9.054688 -15.773438 8.609375 -15.007812 8.296875 -14.0625 C 7.992188 -13.113281 7.84375 -11.894531 7.84375 -10.40625 Z M 7.84375 0 "/></g></g></g><g fill="#000000" fill-opacity="1"><g transform="translate(78.366568, 202.499987)"><g><path d="M 12.953125 0.4375 C 10.660156 0.4375 8.65625 -0.0625 6.9375 -1.0625 C 5.21875 -2.0625 3.882812 -3.425781 2.9375 -5.15625 C 1.988281 -6.894531 1.515625 -8.867188 1.515625 -11.078125 C 1.515625 -12.546875 1.738281 -13.984375 2.1875 -15.390625 C 2.644531 -16.804688 3.34375 -18.082031 4.28125 -19.21875 C 5.21875 -20.351562 6.390625 -21.253906 7.796875 -21.921875 C 9.210938 -22.585938 10.878906 -22.921875 12.796875 -22.921875 C 14.234375 -22.921875 15.625 -22.691406 16.96875 -22.234375 C 18.320312 -21.785156 19.53125 -21.085938 20.59375 -20.140625 C 21.664062 -19.191406 22.515625 -17.984375 23.140625 -16.515625 C 23.765625 -15.046875 24.078125 -13.300781 24.078125 -11.28125 L 24.078125 -10.125 L 7.125 -10.125 C 7.175781 -9.644531 7.28125 -9.171875 7.4375 -8.703125 C 7.601562 -8.234375 7.773438 -7.828125 7.953125 -7.484375 C 8.492188 -6.441406 9.207031 -5.632812 10.09375 -5.0625 C 10.988281 -4.488281 12.007812 -4.203125 13.15625 -4.203125 C 14.4375 -4.203125 15.507812 -4.535156 16.375 -5.203125 C 17.25 -5.867188 17.859375 -6.65625 18.203125 -7.5625 L 23.71875 -7.5625 C 23.289062 -6.125 22.609375 -4.796875 21.671875 -3.578125 C 20.742188 -2.367188 19.554688 -1.394531 18.109375 -0.65625 C 16.671875 0.0703125 14.953125 0.4375 12.953125 0.4375 Z M 7.359375 -14.15625 L 18.5625 -14.15625 C 18.53125 -14.445312 18.453125 -14.78125 18.328125 -15.15625 C 18.210938 -15.53125 18.007812 -15.890625 17.71875 -16.234375 C 17.207031 -17.035156 16.53125 -17.632812 15.6875 -18.03125 C 14.851562 -18.4375 13.941406 -18.640625 12.953125 -18.640625 C 11.972656 -18.640625 11.078125 -18.4375 10.265625 -18.03125 C 9.453125 -17.632812 8.773438 -17.035156 8.234375 -16.234375 C 7.941406 -15.890625 7.734375 -15.53125 7.609375 -15.15625 C 7.492188 -14.78125 7.410156 -14.445312 7.359375 -14.15625 Z M 7.359375 -14.15625 "/></g></g></g><g fill="#000000" fill-opacity="1"><g transform="translate(103.964024, 202.499987)"><g><path d="M 12.15625 0.4375 C 10.445312 0.4375 8.816406 0.164062 7.265625 -0.375 C 5.722656 -0.925781 4.425781 -1.796875 3.375 -2.984375 C 2.320312 -4.171875 1.664062 -5.695312 1.40625 -7.5625 L 6.71875 -7.5625 C 7.0625 -6.332031 7.703125 -5.394531 8.640625 -4.75 C 9.578125 -4.113281 10.738281 -3.796875 12.125 -3.796875 C 13.269531 -3.796875 14.210938 -4.019531 14.953125 -4.46875 C 15.703125 -4.925781 16.078125 -5.570312 16.078125 -6.40625 C 16.078125 -7.070312 15.828125 -7.597656 15.328125 -7.984375 C 14.835938 -8.367188 14.191406 -8.664062 13.390625 -8.875 C 12.597656 -9.09375 11.722656 -9.296875 10.765625 -9.484375 C 9.796875 -9.671875 8.8125 -9.894531 7.8125 -10.15625 C 6.8125 -10.425781 5.898438 -10.789062 5.078125 -11.25 C 4.253906 -11.71875 3.585938 -12.34375 3.078125 -13.125 C 2.566406 -13.914062 2.3125 -14.941406 2.3125 -16.203125 C 2.3125 -17.773438 2.710938 -19.050781 3.515625 -20.03125 C 4.316406 -21.019531 5.378906 -21.75 6.703125 -22.21875 C 8.023438 -22.6875 9.457031 -22.921875 11 -22.921875 C 13.613281 -22.921875 15.800781 -22.257812 17.5625 -20.9375 C 19.320312 -19.613281 20.398438 -17.726562 20.796875 -15.28125 L 15.71875 -15.28125 C 15.394531 -16.507812 14.789062 -17.382812 13.90625 -17.90625 C 13.03125 -18.425781 12.046875 -18.6875 10.953125 -18.6875 C 9.890625 -18.6875 9.046875 -18.476562 8.421875 -18.0625 C 7.796875 -17.644531 7.484375 -17.09375 7.484375 -16.40625 C 7.484375 -15.789062 7.722656 -15.304688 8.203125 -14.953125 C 8.679688 -14.609375 9.3125 -14.34375 10.09375 -14.15625 C 10.882812 -13.96875 11.734375 -13.78125 12.640625 -13.59375 C 13.628906 -13.40625 14.632812 -13.1875 15.65625 -12.9375 C 16.6875 -12.6875 17.632812 -12.328125 18.5 -11.859375 C 19.363281 -11.390625 20.0625 -10.75 20.59375 -9.9375 C 21.132812 -9.125 21.40625 -8.078125 21.40625 -6.796875 C 21.40625 -4.609375 20.585938 -2.851562 18.953125 -1.53125 C 17.328125 -0.21875 15.0625 0.4375 12.15625 0.4375 Z M 12.15625 0.4375 "/></g></g></g><g fill="#000000" fill-opacity="1"><g transform="translate(127.001734, 202.499987)"><g><path d="M 10.28125 0.4375 C 6.8125 0.4375 4.476562 -0.800781 3.28125 -3.28125 C 2.9375 -4.03125 2.6875 -4.847656 2.53125 -5.734375 C 2.382812 -6.628906 2.3125 -7.890625 2.3125 -9.515625 L 2.3125 -22.4375 L 7.71875 -22.4375 L 7.71875 -9.484375 C 7.71875 -8.335938 7.800781 -7.410156 7.96875 -6.703125 C 8.144531 -5.992188 8.421875 -5.425781 8.796875 -5 C 9.441406 -4.332031 10.390625 -4 11.640625 -4 C 13.179688 -4 14.328125 -4.453125 15.078125 -5.359375 C 15.535156 -5.890625 15.863281 -6.601562 16.0625 -7.5 C 16.257812 -8.394531 16.359375 -9.578125 16.359375 -11.046875 L 16.359375 -22.4375 L 21.765625 -22.4375 L 21.765625 0 L 16.359375 0 L 16.359375 -2.84375 C 15.535156 -1.695312 14.648438 -0.863281 13.703125 -0.34375 C 12.753906 0.175781 11.613281 0.4375 10.28125 0.4375 Z M 10.28125 0.4375 "/></g></g></g><g fill="#000000" fill-opacity="1"><g transform="translate(151.239324, 202.499987)"><g><path d="M 7.84375 0 L 2.4375 0 L 2.4375 -22.4375 L 7.84375 -22.4375 L 7.84375 -19.59375 C 8.71875 -20.820312 9.664062 -21.679688 10.6875 -22.171875 C 11.71875 -22.671875 12.804688 -22.921875 13.953125 -22.921875 C 15.421875 -22.921875 16.679688 -22.617188 17.734375 -22.015625 C 18.785156 -21.421875 19.488281 -20.519531 19.84375 -19.3125 C 20.582031 -20.570312 21.5 -21.488281 22.59375 -22.0625 C 23.6875 -22.632812 24.96875 -22.921875 26.4375 -22.921875 C 28.96875 -22.921875 30.828125 -22.179688 32.015625 -20.703125 C 33.203125 -19.222656 33.796875 -17.226562 33.796875 -14.71875 L 33.796875 0 L 28.40625 0 L 28.40625 -14.046875 C 28.40625 -15.585938 28.101562 -16.710938 27.5 -17.421875 C 26.894531 -18.128906 26.019531 -18.484375 24.875 -18.484375 C 24.289062 -18.484375 23.769531 -18.378906 23.3125 -18.171875 C 22.863281 -17.972656 22.492188 -17.71875 22.203125 -17.40625 C 21.691406 -16.8125 21.335938 -16.066406 21.140625 -15.171875 C 20.941406 -14.285156 20.84375 -13.1875 20.84375 -11.875 L 20.84375 0 L 15.4375 0 L 15.4375 -14.046875 C 15.4375 -15.554688 15.125 -16.671875 14.5 -17.390625 C 13.875 -18.117188 13 -18.484375 11.875 -18.484375 C 10.757812 -18.484375 9.851562 -18.09375 9.15625 -17.3125 C 8.726562 -16.8125 8.398438 -16.140625 8.171875 -15.296875 C 7.953125 -14.460938 7.84375 -13.320312 7.84375 -11.875 Z M 7.84375 0 "/></g></g></g><g fill="#000000" fill-opacity="1"><g transform="translate(187.35573, 202.499987)"><g><path d="M 12.953125 0.4375 C 10.660156 0.4375 8.65625 -0.0625 6.9375 -1.0625 C 5.21875 -2.0625 3.882812 -3.425781 2.9375 -5.15625 C 1.988281 -6.894531 1.515625 -8.867188 1.515625 -11.078125 C 1.515625 -12.546875 1.738281 -13.984375 2.1875 -15.390625 C 2.644531 -16.804688 3.34375 -18.082031 4.28125 -19.21875 C 5.21875 -20.351562 6.390625 -21.253906 7.796875 -21.921875 C 9.210938 -22.585938 10.878906 -22.921875 12.796875 -22.921875 C 14.234375 -22.921875 15.625 -22.691406 16.96875 -22.234375 C 18.320312 -21.785156 19.53125 -21.085938 20.59375 -20.140625 C 21.664062 -19.191406 22.515625 -17.984375 23.140625 -16.515625 C 23.765625 -15.046875 24.078125 -13.300781 24.078125 -11.28125 L 24.078125 -10.125 L 7.125 -10.125 C 7.175781 -9.644531 7.28125 -9.171875 7.4375 -8.703125 C 7.601562 -8.234375 7.773438 -7.828125 7.953125 -7.484375 C 8.492188 -6.441406 9.207031 -5.632812 10.09375 -5.0625 C 10.988281 -4.488281 12.007812 -4.203125 13.15625 -4.203125 C 14.4375 -4.203125 15.507812 -4.535156 16.375 -5.203125 C 17.25 -5.867188 17.859375 -6.65625 18.203125 -7.5625 L 23.71875 -7.5625 C 23.289062 -6.125 22.609375 -4.796875 21.671875 -3.578125 C 20.742188 -2.367188 19.554688 -1.394531 18.109375 -0.65625 C 16.671875 0.0703125 14.953125 0.4375 12.953125 0.4375 Z M 7.359375 -14.15625 L 18.5625 -14.15625 C 18.53125 -14.445312 18.453125 -14.78125 18.328125 -15.15625 C 18.210938 -15.53125 18.007812 -15.890625 17.71875 -16.234375 C 17.207031 -17.035156 16.53125 -17.632812 15.6875 -18.03125 C 14.851562 -18.4375 13.941406 -18.640625 12.953125 -18.640625 C 11.972656 -18.640625 11.078125 -18.4375 10.265625 -18.03125 C 9.453125 -17.632812 8.773438 -17.035156 8.234375 -16.234375 C 7.941406 -15.890625 7.734375 -15.53125 7.609375 -15.15625 C 7.492188 -14.78125 7.410156 -14.445312 7.359375 -14.15625 Z M 7.359375 -14.15625 "/></g></g></g><g fill="#000000" fill-opacity="1"><g transform="translate(212.953187, 202.499987)"><g><path d="M 12.5625 0 L 7.4375 0 L 0.59375 -22.4375 L 6.359375 -22.4375 L 10.203125 -7.875 L 14.484375 -22.4375 L 19.15625 -22.4375 L 23.4375 -7.953125 L 27.40625 -22.4375 L 33.125 -22.4375 L 26.15625 0 L 21.078125 0 L 16.875 -15.125 Z M 12.5625 0 "/></g></g></g><g fill="#000000" fill-opacity="1"><g transform="translate(246.709833, 202.499987)"><g><path d="M 13 0.4375 C 10.757812 0.4375 8.769531 -0.0507812 7.03125 -1.03125 C 5.300781 -2.019531 3.945312 -3.398438 2.96875 -5.171875 C 2 -6.953125 1.515625 -9.015625 1.515625 -11.359375 C 1.515625 -13.628906 2 -15.628906 2.96875 -17.359375 C 3.945312 -19.085938 5.296875 -20.445312 7.015625 -21.4375 C 8.734375 -22.425781 10.726562 -22.921875 13 -22.921875 C 15.269531 -22.921875 17.269531 -22.425781 19 -21.4375 C 20.726562 -20.445312 22.078125 -19.085938 23.046875 -17.359375 C 24.023438 -15.628906 24.515625 -13.628906 24.515625 -11.359375 C 24.515625 -9.035156 24.035156 -6.988281 23.078125 -5.21875 C 22.117188 -3.445312 20.769531 -2.0625 19.03125 -1.0625 C 17.300781 -0.0625 15.289062 0.4375 13 0.4375 Z M 13 -4.203125 C 14.757812 -4.203125 16.1875 -4.867188 17.28125 -6.203125 C 18.375 -7.535156 18.921875 -9.253906 18.921875 -11.359375 C 18.921875 -12.691406 18.671875 -13.878906 18.171875 -14.921875 C 17.679688 -15.960938 16.992188 -16.78125 16.109375 -17.375 C 15.234375 -17.976562 14.195312 -18.28125 13 -18.28125 C 11.851562 -18.28125 10.828125 -17.984375 9.921875 -17.390625 C 9.015625 -16.804688 8.304688 -15.992188 7.796875 -14.953125 C 7.296875 -13.921875 7.046875 -12.722656 7.046875 -11.359375 C 7.046875 -9.222656 7.601562 -7.492188 8.71875 -6.171875 C 9.84375 -4.859375 11.269531 -4.203125 13 -4.203125 Z M 13 -4.203125 "/></g></g></g><g fill="#000000" fill-opacity="1"><g transform="translate(272.787254, 202.499987)"><g><path d="M 7.84375 0 L 2.4375 0 L 2.4375 -22.4375 L 7.84375 -22.4375 L 7.84375 -19.765625 C 8.695312 -20.929688 9.648438 -21.75 10.703125 -22.21875 C 11.753906 -22.6875 12.929688 -22.921875 14.234375 -22.921875 L 14.875 -22.921875 L 14.875 -17.71875 L 13.640625 -17.71875 C 12.734375 -17.71875 11.953125 -17.597656 11.296875 -17.359375 C 10.640625 -17.117188 10.085938 -16.785156 9.640625 -16.359375 C 9.054688 -15.773438 8.609375 -15.007812 8.296875 -14.0625 C 7.992188 -13.113281 7.84375 -11.894531 7.84375 -10.40625 Z M 7.84375 0 "/></g></g></g><g fill="#000000" fill-opacity="1"><g transform="translate(288.425696, 202.499987)"><g><path d="M 7.875 0 L 2.484375 0 L 2.484375 -30.515625 L 7.875 -30.515625 L 7.875 -14.15625 L 16.078125 -22.4375 L 22.921875 -22.4375 L 13 -12.71875 L 23.640625 0 L 17 0 L 7.875 -11.15625 Z M 7.875 0 "/></g></g></g></svg>